# xmcd CD database file
#
# Track frame offsets:
#	150
#	21680
#	35173
#	47410
#	60479
#	81260
#	89769
#	110890
#	133845
#	142752
#	161129
#	173726
#	189783
#	212537
#
# Disc length: 3069 seconds
#
# Revision: 0
# Processed by: cddbd v1.5.2PL0 Copyright (c) Steve Scherf et al.
# Submitted via: CDex 1.70beta2
#
DISCID=c70bfb0e
DTITLE=Ned Ka'apana - Pana
DYEAR=2002
DGENRE=Hawaiian
TTITLE0=Wai Ulu
TTITLE1=I Ka Po Nani
TTITLE2=Honeysuckle Rose
TTITLE3=Buffalo's Song
TTITLE4=My Darling
TTITLE5=The Stars And Stripes Forever
TTITLE6=Pu'u 'o Hulu
TTITLE7=And I Love You So
TTITLE8=12th Street Rag
TTITLE9=A Mama And Her Child
TTITLE10=Portuguese Slack Key
TTITLE11=Na Pua o Ke Akua
TTITLE12=A Place In The Sun
TTITLE13=Over The Rainbow
EXTD=YEAR: 2002
EXTT0=
EXTT1=
EXTT2=
EXTT3=
EXTT4=
EXTT5=
EXTT6=
EXTT7=
EXTT8=
EXTT9=
EXTT10=
EXTT11=
EXTT12=
EXTT13=
PLAYORDER=
